<svg width="122" height="43" viewBox="0 0 122 43" fill="none" xmlns="http://www.w3.org/2000/svg">
<path d="M17.164 25.536C12.58 25.536 9.028 25.284 6.508 24.78C5.86 12.756 5.272 5.484 4.744 2.964L3.664 3.216C3.088 3.336 2.536 3.468 2.008 3.612C1.48 3.732 0.916 3.912 0.316 4.152L0.28 2.928C0.28 2.52 0.724 2.148 1.612 1.812C2.5 1.452 3.568 1.176 4.816 0.983998C6.088 0.767998 7.216 0.659998 8.2 0.659998C9.28 0.659998 10.516 0.851998 11.908 1.236C13.324 1.62 14.536 2.196 15.544 2.964C16.552 3.708 17.056 4.596 17.056 5.628C17.056 6.804 16.6 7.848 15.688 8.76C14.8 9.648 13.636 10.284 12.196 10.668C14.308 11.028 16.276 11.676 18.1 12.612C19.924 13.524 21.388 14.664 22.492 16.032C23.596 17.376 24.148 18.828 24.148 20.388C24.148 22.188 23.452 23.496 22.06 24.312C20.668 25.128 19.036 25.536 17.164 25.536ZM16.228 23.484C18.004 23.484 19.372 23.292 20.332 22.908C21.292 22.5 21.772 21.636 21.772 20.316C21.772 18.924 21.352 17.76 20.512 16.824C19.696 15.864 18.724 15.12 17.596 14.592C16.492 14.04 15.112 13.464 13.456 12.864C12.136 12.408 11.152 12.012 10.504 11.676C9.88 11.316 9.568 10.92 9.568 10.488C9.568 10.176 9.724 9.936 10.036 9.768C10.348 9.6 10.9 9.36 11.692 9.048C12.772 8.688 13.612 8.304 14.212 7.896C14.836 7.464 15.148 6.864 15.148 6.096C15.148 4.968 14.464 4.104 13.096 3.504C11.728 2.88 10.192 2.568 8.488 2.568C8.008 2.568 7.432 2.616 6.76 2.712C7.384 6.744 7.816 10.14 8.056 12.9C8.296 15.636 8.464 18.816 8.56 22.44C8.896 22.776 9.748 23.028 11.116 23.196C12.484 23.364 14.188 23.46 16.228 23.484ZM29.8307 25.5C28.8467 23.58 28.0667 21.324 27.4907 18.732C26.9387 16.14 26.6627 13.896 26.6627 12C26.6627 11.256 26.8307 10.776 27.1667 10.56C27.3587 10.44 27.5027 10.38 27.5987 10.38C27.7667 10.38 27.8867 10.512 27.9587 10.776C28.0547 11.04 28.1507 11.52 28.2467 12.216L28.4267 13.512C28.6907 12.216 29.1947 11.196 29.9387 10.452C30.7067 9.684 31.6427 9.3 32.7467 9.3C33.9707 9.3 34.8827 9.54 35.4827 10.02C36.0827 10.476 36.3827 11.244 36.3827 12.324C35.1827 11.748 34.0907 11.46 33.1067 11.46C32.1707 11.46 31.3667 11.712 30.6947 12.216C30.0227 12.72 29.5547 13.464 29.2907 14.448C29.0747 15.12 28.9667 15.756 28.9667 16.356C28.9667 17.004 29.0507 17.616 29.2187 18.192C29.4107 18.744 29.6987 19.428 30.0827 20.244C30.4427 21.084 30.7187 21.804 30.9107 22.404C31.1267 23.004 31.2467 23.652 31.2707 24.348C31.2707 24.756 31.1267 25.056 30.8387 25.248C30.5507 25.416 30.2147 25.5 29.8307 25.5ZM46.3032 25.5C44.7672 25.5 43.3512 25.2 42.0552 24.6C40.7592 24 39.7272 23.148 38.9592 22.044C38.1912 20.94 37.8072 19.668 37.8072 18.228C37.8072 16.62 38.1072 15.12 38.7072 13.728C39.3072 12.312 40.1832 11.184 41.3352 10.344C42.5112 9.48 43.8792 9.048 45.4392 9.048C47.0712 9.048 48.3072 9.576 49.1472 10.632C49.9872 11.664 50.3832 12.972 50.3352 14.556C50.3352 15.972 49.7712 17.052 48.6432 17.796C47.5392 18.54 46.1232 18.912 44.3952 18.912C44.1312 18.912 43.7352 18.888 43.2072 18.84C42.3432 18.744 41.7312 18.612 41.3712 18.444C41.0112 18.276 40.8312 17.94 40.8312 17.436C40.8312 17.268 40.8792 17.148 40.9752 17.076C41.0712 16.98 41.2632 16.932 41.5512 16.932C41.8632 16.932 42.4152 17.004 43.2072 17.148C43.9752 17.292 44.6592 17.364 45.2592 17.364C47.4672 17.364 48.5712 16.404 48.5712 14.484C48.5712 13.332 48.3552 12.42 47.9232 11.748C47.5152 11.076 46.7832 10.74 45.7272 10.74C44.5752 10.74 43.5432 11.052 42.6312 11.676C41.7192 12.276 41.0112 13.068 40.5072 14.052C40.0272 15.036 39.7872 16.08 39.7872 17.184C39.7872 19.08 40.3152 20.64 41.3712 21.864C42.4272 23.064 44.0592 23.664 46.2672 23.664C46.5312 23.664 46.9752 23.64 47.5992 23.592C47.8632 23.568 48.1872 23.496 48.5712 23.376C48.9552 23.256 49.2312 23.172 49.3992 23.124C50.4312 22.764 51.1872 22.584 51.6672 22.584C52.0272 22.584 52.3032 22.68 52.4952 22.872C51.8952 23.784 50.9952 24.456 49.7952 24.888C48.6192 25.296 47.4552 25.5 46.3032 25.5ZM69.9279 25.32C68.5839 25.32 67.4919 25.068 66.6519 24.564C65.8359 24.036 65.2599 23.22 64.9239 22.116C64.2039 23.364 63.3759 24.3 62.4399 24.924C61.5039 25.524 60.4959 25.824 59.4159 25.824C57.5439 25.824 56.1039 25.152 55.0959 23.808C54.0879 22.464 53.5839 20.292 53.5839 17.292C53.5839 15.876 53.7279 14.676 54.0159 13.692C54.3279 12.708 54.8439 11.808 55.5639 10.992C55.8999 11.112 56.1039 11.28 56.1759 11.496C56.2719 11.688 56.3199 11.976 56.3199 12.36C56.3199 12.744 56.2719 13.128 56.1759 13.512C56.1039 13.896 56.0559 14.124 56.0319 14.196C55.8639 14.916 55.7319 15.552 55.6359 16.104C55.5639 16.632 55.5279 17.292 55.5279 18.084C55.5279 19.812 55.8519 21.228 56.4999 22.332C57.1719 23.412 58.1319 23.952 59.3799 23.952C60.7959 23.952 61.8999 23.496 62.6919 22.584C63.5079 21.648 63.9159 20.484 63.9159 19.092L63.6639 15.42C63.6639 15.276 63.7599 15.132 63.9519 14.988C64.1679 14.844 64.4079 14.772 64.6719 14.772C65.0079 14.772 65.2359 15 65.3559 15.456C65.4759 15.912 65.5839 16.632 65.6799 17.616C65.8239 18.84 65.9799 19.848 66.1479 20.64C66.3399 21.408 66.6999 22.092 67.2279 22.692C67.7559 23.268 68.5239 23.556 69.5319 23.556C70.7559 23.556 71.6439 23.22 72.1959 22.548C72.7479 21.852 73.0239 20.952 73.0239 19.848C73.0239 18.864 72.8319 17.832 72.4479 16.752C72.0879 15.648 71.6439 14.748 71.1159 14.052C71.0919 13.836 71.1999 13.656 71.4399 13.512C71.7039 13.368 71.9679 13.332 72.2319 13.404C72.6639 13.5 73.0599 13.884 73.4199 14.556C73.8039 15.228 74.1039 16.068 74.3199 17.076C74.5599 18.084 74.6799 19.092 74.6799 20.1C74.6799 21.612 74.2959 22.86 73.5279 23.844C72.7839 24.828 71.5839 25.32 69.9279 25.32ZM86.0649 25.5C84.5289 25.5 83.1129 25.2 81.8169 24.6C80.5209 24 79.4889 23.148 78.7209 22.044C77.9529 20.94 77.5689 19.668 77.5689 18.228C77.5689 16.62 77.8689 15.12 78.4689 13.728C79.0689 12.312 79.9449 11.184 81.0969 10.344C82.2729 9.48 83.6409 9.048 85.2009 9.048C86.8329 9.048 88.0689 9.576 88.9089 10.632C89.7489 11.664 90.1449 12.972 90.0969 14.556C90.0969 15.972 89.5329 17.052 88.4049 17.796C87.3009 18.54 85.8849 18.912 84.1569 18.912C83.8929 18.912 83.4969 18.888 82.9689 18.84C82.1049 18.744 81.4929 18.612 81.1329 18.444C80.7729 18.276 80.5929 17.94 80.5929 17.436C80.5929 17.268 80.6409 17.148 80.7369 17.076C80.8329 16.98 81.0249 16.932 81.3129 16.932C81.6249 16.932 82.1769 17.004 82.9689 17.148C83.7369 17.292 84.4209 17.364 85.0209 17.364C87.2289 17.364 88.3329 16.404 88.3329 14.484C88.3329 13.332 88.1169 12.42 87.6849 11.748C87.2769 11.076 86.5449 10.74 85.4889 10.74C84.3369 10.74 83.3049 11.052 82.3929 11.676C81.4809 12.276 80.7729 13.068 80.2689 14.052C79.7889 15.036 79.5489 16.08 79.5489 17.184C79.5489 19.08 80.0769 20.64 81.1329 21.864C82.1889 23.064 83.8209 23.664 86.0289 23.664C86.2929 23.664 86.7369 23.64 87.3609 23.592C87.6249 23.568 87.9489 23.496 88.3329 23.376C88.7169 23.256 88.9929 23.172 89.1609 23.124C90.1929 22.764 90.9489 22.584 91.4289 22.584C91.7889 22.584 92.0649 22.68 92.2569 22.872C91.6569 23.784 90.7569 24.456 89.5569 24.888C88.3809 25.296 87.2169 25.5 86.0649 25.5ZM96.8736 25.5C95.8896 23.58 95.1096 21.324 94.5336 18.732C93.9816 16.14 93.7056 13.896 93.7056 12C93.7056 11.256 93.8736 10.776 94.2096 10.56C94.4016 10.44 94.5456 10.38 94.6416 10.38C94.8096 10.38 94.9296 10.512 95.0016 10.776C95.0976 11.04 95.1936 11.52 95.2896 12.216L95.4696 13.512C95.7336 12.216 96.2376 11.196 96.9816 10.452C97.7496 9.684 98.6856 9.3 99.7896 9.3C101.014 9.3 101.926 9.54 102.526 10.02C103.126 10.476 103.426 11.244 103.426 12.324C102.226 11.748 101.134 11.46 100.15 11.46C99.2136 11.46 98.4096 11.712 97.7376 12.216C97.0656 12.72 96.5976 13.464 96.3336 14.448C96.1176 15.12 96.0096 15.756 96.0096 16.356C96.0096 17.004 96.0936 17.616 96.2616 18.192C96.4536 18.744 96.7416 19.428 97.1256 20.244C97.4856 21.084 97.7616 21.804 97.9536 22.404C98.1696 23.004 98.2896 23.652 98.3136 24.348C98.3136 24.756 98.1696 25.056 97.8816 25.248C97.5936 25.416 97.2576 25.5 96.8736 25.5ZM114.714 42.528C113.082 42.528 111.618 42.18 110.322 41.484C109.05 40.788 108.03 39.984 107.262 39.072C106.494 38.16 106.062 37.416 105.966 36.84C105.87 36.312 105.99 35.904 106.326 35.616C106.686 35.328 107.13 35.208 107.658 35.256C108.402 37.032 109.29 38.4 110.322 39.36C111.354 40.32 112.83 40.824 114.75 40.872C116.094 40.896 117.162 40.032 117.954 38.28C118.77 36.552 119.346 34.428 119.682 31.908C120.018 29.412 120.186 26.952 120.186 24.528C120.186 23.28 120.15 22.26 120.078 21.468C118.254 23.7 115.926 24.816 113.094 24.816C110.646 24.816 108.762 23.652 107.442 21.324C106.146 18.996 105.306 16.368 104.922 13.44C104.874 13.152 104.85 12.744 104.85 12.216C104.85 10.704 105.342 9.948 106.326 9.948C106.422 9.948 106.554 10.548 106.722 11.748C106.986 13.644 107.31 15.348 107.694 16.86C108.078 18.372 108.714 19.752 109.602 21C110.514 22.224 111.714 22.836 113.202 22.836C114.378 22.836 115.578 22.452 116.802 21.684C118.05 20.892 118.95 20.016 119.502 19.056C119.502 17.232 119.262 15.6 118.782 14.16C118.326 12.696 118.086 11.916 118.062 11.82C118.014 11.292 117.99 10.956 117.99 10.812C117.99 10.332 118.062 9.984 118.206 9.768C118.374 9.552 118.614 9.444 118.926 9.444C119.262 9.444 119.646 10.128 120.078 11.496C120.51 12.864 120.894 14.652 121.23 16.86C121.566 19.068 121.794 21.372 121.914 23.772C121.962 25.02 121.986 25.944 121.986 26.544C121.986 31.152 121.41 34.968 120.258 37.992C119.13 41.016 117.282 42.528 114.714 42.528Z" fill="white"/>
</svg>
